<svg width="952" height="206" viewBox="0 0 952 206" fill="none" xmlns="http://www.w3.org/2000/svg">
<path d="M531.083 6.9856C558.232 6.9856 580.656 9.6013 598.354 14.8327C616.051 20.0641 629.928 27.207 639.983 36.2613C650.039 45.3157 657.078 55.6779 661.1 67.3479C665.323 78.8168 667.435 90.8892 667.435 103.565C667.435 116.241 665.122 128.414 660.497 140.085C655.871 151.553 648.229 161.815 637.57 170.869C627.112 179.924 613.135 187.067 595.639 192.298C578.343 197.529 556.825 200.145 531.083 200.145H313.884V6.9856H531.083ZM389.3 139.783H528.066C539.328 139.783 548.881 139.078 556.724 137.67C564.567 136.06 570.802 133.746 575.427 130.728C580.254 127.71 583.673 123.988 585.684 119.561C587.896 114.934 589.002 109.602 589.002 103.565C589.002 97.5291 587.896 92.2977 585.684 87.8711C583.673 83.2433 580.254 79.4204 575.427 76.4023C570.802 73.3842 564.567 71.1709 556.724 69.7624C548.881 68.1528 539.328 67.3479 528.066 67.3479H389.3V139.783Z" fill="black"/>
<path d="M799.219 96.9684C764.194 96.9684 736.113 95.6606 714.977 93.0449C694.043 90.228 678.845 85.6002 669.385 79.1615C660.125 72.7229 655.495 64.071 655.495 53.2058C655.495 42.1393 660.125 32.6826 669.385 24.8355C678.845 16.9884 694.043 10.9521 714.977 6.72677C736.113 2.3002 764.194 0.0869141 799.219 0.0869141C834.445 0.0869141 862.525 2.3002 883.46 6.72677C904.596 10.9521 919.793 16.9884 929.053 24.8355C938.513 32.6826 943.244 42.1393 943.244 53.2058C943.244 64.071 938.513 72.7229 929.053 79.1615C919.793 85.6002 904.596 90.228 883.46 93.0449C862.525 95.6606 834.445 96.9684 799.219 96.9684ZM799.219 84.896C818.14 84.896 832.633 84.1917 842.698 82.7833C852.763 81.3748 859.707 79.4634 863.532 77.0489C867.356 74.6344 869.269 71.9181 869.269 68.9C869.269 65.8818 867.356 63.3667 863.532 61.3547C859.707 59.1414 852.763 57.5317 842.698 56.5257C832.633 55.5196 818.14 55.0166 799.219 55.0166C780.498 55.0166 766.307 55.5196 756.645 56.5257C747.184 57.5317 740.743 59.1414 737.321 61.3547C734.1 63.3667 732.49 65.8818 732.49 68.9C732.49 71.9181 734.1 74.6344 737.321 77.0489C740.743 79.4634 747.184 81.3748 756.645 82.7833C766.307 84.1917 780.498 84.896 799.219 84.896ZM799.219 205.319C761.979 205.319 732.188 202.703 709.844 197.472C687.501 192.24 671.397 185.097 661.534 176.043C651.671 166.989 646.739 156.828 646.739 145.56C646.739 131.677 651.872 121.113 662.138 113.87C672.605 106.626 689.011 101.697 711.354 99.0811C733.698 96.4654 762.986 95.1576 799.219 95.1576C835.451 95.1576 864.74 96.4654 887.083 99.0811C909.628 101.697 926.033 106.626 936.299 113.87C946.766 121.113 952 131.677 952 145.56C952 156.828 946.968 166.989 936.903 176.043C927.04 185.097 910.936 192.24 888.593 197.472C866.249 202.703 836.458 205.319 799.219 205.319ZM799.219 148.276C820.153 148.276 836.256 147.773 847.529 146.767C859.003 145.56 866.954 143.85 871.382 141.637C875.811 139.222 878.025 136.305 878.025 132.884C878.025 129.463 875.811 126.647 871.382 124.433C866.954 122.22 859.003 120.61 847.529 119.604C836.256 118.397 820.153 117.793 799.219 117.793C778.485 117.793 762.684 118.397 751.814 119.604C740.944 120.61 733.496 122.22 729.471 124.433C725.646 126.647 723.734 129.463 723.734 132.884C723.734 136.305 725.646 139.222 729.471 141.637C733.496 143.85 740.944 145.56 751.814 146.767C762.684 147.773 778.485 148.276 799.219 148.276Z" fill="black"/>
<path d="M122.278 138.693C95.3729 138.693 72.7846 135.785 54.5131 129.969C36.4425 124.153 22.7891 116.13 13.553 105.902C4.51766 95.6732 0 83.9405 0 70.7035C0 56.2633 5.3208 43.9289 15.9624 33.7003C26.604 23.4718 43.5703 15.65 66.8614 10.2349C90.3533 4.61923 121.174 1.8114 159.323 1.8114C197.472 1.8114 228.995 4.11784 253.893 8.73071C278.79 13.3436 297.262 20.4634 309.309 30.0903C321.557 39.5166 327.681 51.851 327.681 67.0935C327.681 73.3108 325.974 79.829 322.561 86.648C319.148 93.467 313.124 100.787 304.49 108.609C303.687 109.411 301.077 111.718 296.66 115.529C292.243 119.339 286.621 124.052 279.794 129.668C273.168 135.284 265.94 141.3 258.109 147.718C250.279 154.136 242.548 160.554 234.918 166.972C227.289 173.39 220.261 179.206 213.836 184.421C207.612 189.635 202.592 193.847 198.777 197.056C194.962 200.265 193.055 201.869 193.055 201.869H91.558L282.203 67.0935L301.479 55.0599C285.817 68.2968 271.261 80.1298 257.808 90.5589C244.355 100.988 230.802 109.813 217.149 117.033C203.696 124.052 189.34 129.467 174.081 133.278C158.821 136.888 141.553 138.693 122.278 138.693ZM159.323 51.4498C130.811 51.4498 109.629 52.954 95.7745 55.9624C82.1211 58.7703 75.2944 64.1854 75.2944 72.2077C75.2944 79.6284 82.1211 85.0435 95.7745 88.4531C109.629 91.8626 130.811 93.5673 159.323 93.5673C187.834 93.5673 210.423 91.8626 227.088 88.4531C243.954 85.0435 252.387 79.6284 252.387 72.2077C252.387 66.7926 248.572 62.5809 240.942 59.5725C233.312 56.5641 222.57 54.4582 208.716 53.2549C194.862 52.0515 178.397 51.4498 159.323 51.4498Z" fill="black"/>
</svg>
