<svg width="424" height="93" viewBox="0 0 424 93" fill="none" xmlns="http://www.w3.org/2000/svg">
<path d="M236.533 3.86958C248.624 3.86958 258.612 5.03456 266.494 7.36451C274.376 9.69447 280.556 12.8757 285.035 16.9083C289.513 20.941 292.648 25.5561 294.439 30.7536C296.32 35.8616 297.261 41.2384 297.261 46.8841C297.261 52.5297 296.231 57.9513 294.171 63.1489C292.111 68.2569 288.707 72.8272 283.96 76.8598C279.302 80.8924 273.077 84.0737 265.284 86.4036C257.581 88.7336 247.997 89.8986 236.533 89.8986H139.797V3.86958H236.533ZM173.386 63.0145H235.189C240.205 63.0145 244.459 62.7009 247.953 62.0736C251.446 61.3567 254.223 60.3261 256.283 58.9819C258.432 57.6377 259.955 55.9798 260.851 54.0083C261.836 51.9472 262.329 49.5725 262.329 46.8841C262.329 44.1957 261.836 41.8657 260.851 39.8942C259.955 37.8331 258.432 36.1305 256.283 34.7862C254.223 33.442 251.446 32.4563 247.953 31.829C244.459 31.1121 240.205 30.7536 235.189 30.7536H173.386V63.0145Z" fill="#F5EFBD"/>
<path d="M355.955 43.946C340.355 43.946 327.849 43.3635 318.435 42.1986C309.112 40.944 302.343 38.8829 298.129 36.0152C294.005 33.1476 291.943 29.2942 291.943 24.4551C291.943 19.5263 294.005 15.3145 298.129 11.8196C302.343 8.32465 309.112 5.63625 318.435 3.75437C327.849 1.78287 340.355 0.797119 355.955 0.797119C371.644 0.797119 384.15 1.78287 393.474 3.75437C402.887 5.63625 409.656 8.32465 413.78 11.8196C417.993 15.3145 420.1 19.5263 420.1 24.4551C420.1 29.2942 417.993 33.1476 413.78 36.0152C409.656 38.8829 402.887 40.944 393.474 42.1986C384.15 43.3635 371.644 43.946 355.955 43.946ZM355.955 38.5692C364.382 38.5692 370.837 38.2556 375.319 37.6283C379.802 37.001 382.895 36.1497 384.598 35.0743C386.302 33.9989 387.153 32.7891 387.153 31.4449C387.153 30.1007 386.302 28.9806 384.598 28.0844C382.895 27.0987 379.802 26.3818 375.319 25.9337C370.837 25.4856 364.382 25.2616 355.955 25.2616C347.617 25.2616 341.296 25.4856 336.993 25.9337C332.78 26.3818 329.911 27.0987 328.387 28.0844C326.952 28.9806 326.235 30.1007 326.235 31.4449C326.235 32.7891 326.952 33.9989 328.387 35.0743C329.911 36.1497 332.78 37.001 336.993 37.6283C341.296 38.2556 347.617 38.5692 355.955 38.5692ZM355.955 92.2029C339.369 92.2029 326.101 91.0379 316.149 88.708C306.198 86.378 299.026 83.1968 294.633 79.1641C290.24 75.1315 288.043 70.6061 288.043 65.5877C288.043 59.4044 290.33 54.6997 294.902 51.4736C299.564 48.2475 306.87 46.052 316.822 44.887C326.773 43.722 339.817 43.1395 355.955 43.1395C372.092 43.1395 385.136 43.722 395.087 44.887C405.128 46.052 412.435 48.2475 417.007 51.4736C421.669 54.6997 424 59.4044 424 65.5877C424 70.6061 421.759 75.1315 417.276 79.1641C412.883 83.1968 405.711 86.378 395.76 88.708C385.808 91.0379 372.54 92.2029 355.955 92.2029ZM355.955 66.7975C365.278 66.7975 372.45 66.5734 377.471 66.1254C382.581 65.5877 386.122 64.826 388.095 63.8402C390.067 62.7649 391.053 61.4655 391.053 59.942C391.053 58.4186 390.067 57.164 388.095 56.1783C386.122 55.1925 382.581 54.4756 377.471 54.0276C372.45 53.4899 365.278 53.221 355.955 53.221C346.72 53.221 339.683 53.4899 334.842 54.0276C330 54.4756 326.683 55.1925 324.89 56.1783C323.187 57.164 322.335 58.4186 322.335 59.942C322.335 61.4655 323.187 62.7649 324.89 63.8402C326.683 64.826 330 65.5877 334.842 66.1254C339.683 66.5734 346.72 66.7975 355.955 66.7975Z" fill="#F5EFBD"/>
<path d="M54.46 62.5294C42.477 62.5294 32.4167 61.2342 24.279 58.6438C16.2307 56.0533 10.1498 52.4803 6.03621 47.9248C2.01207 43.3692 0 38.1437 0 32.2483C0 25.8169 2.36977 20.3234 7.10931 15.7679C11.8488 11.2123 19.4053 7.72865 29.7786 5.31688C40.2414 2.81578 53.9681 1.56524 70.9589 1.56524C87.9497 1.56524 101.99 2.59247 113.078 4.64694C124.167 6.70141 132.394 9.87244 137.76 14.16C143.215 18.3583 145.942 23.8518 145.942 30.6404C145.942 33.4095 145.182 36.3126 143.662 39.3496C142.141 42.3867 139.459 45.647 135.613 49.1307C135.256 49.488 134.093 50.5152 132.126 52.2124C130.158 53.9095 127.655 56.0087 124.614 58.5098C121.663 61.0109 118.444 63.6906 114.956 66.549C111.469 69.4074 108.026 72.2658 104.628 75.1242C101.229 77.9826 98.0995 80.573 95.2379 82.8954C92.4657 85.2179 90.2301 87.0937 88.531 88.5229C86.8319 89.9521 85.9824 90.6667 85.9824 90.6667H40.7779L125.687 30.6404L134.272 25.281C127.297 31.1764 120.814 36.4466 114.822 41.0914C108.831 45.7363 102.794 49.6666 96.7134 52.8823C90.7219 56.0087 84.328 58.4204 77.5317 60.1176C70.7354 61.7255 63.0448 62.5294 54.46 62.5294ZM70.9589 23.6731C58.2606 23.6731 48.8262 24.3431 42.6559 25.6829C36.5749 26.9335 33.5345 29.3452 33.5345 32.9182C33.5345 36.2232 36.5749 38.635 42.6559 40.1535C48.8262 41.6721 58.2606 42.4313 70.9589 42.4313C83.6573 42.4313 93.7177 41.6721 101.14 40.1535C108.652 38.635 112.408 36.2232 112.408 32.9182C112.408 30.5065 110.708 28.6306 107.31 27.2908C103.912 25.9509 99.1279 25.013 92.9576 24.477C86.7872 23.9411 79.4543 23.6731 70.9589 23.6731Z" fill="#F5EFBD"/>
</svg>
