<svg width="1668" height="361" viewBox="0 0 1668 361" fill="none" xmlns="http://www.w3.org/2000/svg">
<path d="M930.835 12.9531C978.384 12.9531 1017.65 17.5341 1048.65 26.696C1079.64 35.8579 1103.95 48.3674 1121.56 64.2246C1139.17 80.0817 1151.49 98.2294 1158.54 118.667C1165.94 138.753 1169.63 159.896 1169.63 182.096C1169.63 204.296 1165.58 225.615 1157.48 246.053C1149.38 266.139 1136 284.11 1117.33 299.968C1099.02 315.825 1074.54 328.334 1043.89 337.496C1013.6 346.658 975.918 351.239 930.835 351.239H550.449V12.9531H930.835ZM682.528 245.525H925.552C945.276 245.525 962.006 244.291 975.742 241.825C989.478 239.006 1000.4 234.953 1008.5 229.668C1016.95 224.382 1022.94 217.863 1026.46 210.11C1030.33 202.006 1032.27 192.667 1032.27 182.096C1032.27 171.525 1030.33 162.363 1026.46 154.61C1022.94 146.506 1016.95 139.81 1008.5 134.525C1000.4 129.239 989.478 125.363 975.742 122.896C962.006 120.077 945.276 118.667 925.552 118.667H682.528V245.525Z" fill="#222222"/>
<path d="M1400.43 170.545C1339.09 170.545 1289.91 168.254 1252.9 163.673C1216.23 158.74 1189.62 150.635 1173.05 139.359C1156.83 128.083 1148.72 112.93 1148.72 93.9017C1148.72 74.5207 1156.83 57.9588 1173.05 44.2159C1189.62 30.4731 1216.23 19.9016 1252.9 12.5016C1289.91 4.74924 1339.09 0.873047 1400.43 0.873047C1462.12 0.873047 1511.3 4.74924 1547.96 12.5016C1584.98 19.9016 1611.6 30.4731 1627.81 44.2159C1644.38 57.9588 1652.67 74.5207 1652.67 93.9017C1652.67 112.93 1644.38 128.083 1627.81 139.359C1611.6 150.635 1584.98 158.74 1547.96 163.673C1511.3 168.254 1462.12 170.545 1400.43 170.545ZM1400.43 149.402C1433.57 149.402 1458.95 148.168 1476.58 145.702C1494.2 143.235 1506.37 139.887 1513.06 135.659C1519.76 131.43 1523.11 126.673 1523.11 121.387C1523.11 116.102 1519.76 111.697 1513.06 108.173C1506.37 104.297 1494.2 101.478 1476.58 99.716C1458.95 97.9541 1433.57 97.0731 1400.43 97.0731C1367.65 97.0731 1342.79 97.9541 1325.87 99.716C1309.3 101.478 1298.02 104.297 1292.03 108.173C1286.39 111.697 1283.57 116.102 1283.57 121.387C1283.57 126.673 1286.39 131.43 1292.03 135.659C1298.02 139.887 1309.3 143.235 1325.87 145.702C1342.79 148.168 1367.65 149.402 1400.43 149.402ZM1400.43 360.302C1335.21 360.302 1283.04 355.721 1243.91 346.559C1204.78 337.397 1176.57 324.888 1159.3 309.03C1142.03 293.173 1133.39 275.378 1133.39 255.645C1133.39 231.33 1142.38 212.83 1160.36 200.145C1178.69 187.459 1207.42 178.826 1246.55 174.245C1285.68 169.664 1336.98 167.373 1400.43 167.373C1463.89 167.373 1515.18 169.664 1554.31 174.245C1593.79 178.826 1622.52 187.459 1640.5 200.145C1658.84 212.83 1668 231.33 1668 255.645C1668 275.378 1659.19 293.173 1641.56 309.03C1624.29 324.888 1596.09 337.397 1556.95 346.559C1517.82 355.721 1465.65 360.302 1400.43 360.302ZM1400.43 260.402C1437.09 260.402 1465.3 259.521 1485.04 257.759C1505.13 255.645 1519.06 252.649 1526.81 248.773C1534.57 244.545 1538.45 239.435 1538.45 233.445C1538.45 227.454 1534.57 222.521 1526.81 218.645C1519.06 214.768 1505.13 211.949 1485.04 210.187C1465.3 208.073 1437.09 207.016 1400.43 207.016C1364.12 207.016 1336.45 208.073 1317.41 210.187C1298.37 211.949 1285.33 214.768 1278.28 218.645C1271.58 222.521 1268.23 227.454 1268.23 233.445C1268.23 239.435 1271.58 244.545 1278.28 248.773C1285.33 252.649 1298.37 255.645 1317.41 257.759C1336.45 259.521 1364.12 260.402 1400.43 260.402Z" fill="#222222"/>
<path d="M214.884 243.62C167.764 243.62 128.204 238.527 96.2049 228.34C64.5572 218.154 40.6456 204.105 24.4701 186.191C8.6463 168.277 0.734375 147.73 0.734375 124.547C0.734375 99.2577 10.0529 77.6561 28.6898 59.7426C47.3268 41.8291 77.0404 28.1305 117.831 18.6469C158.973 8.81197 212.95 3.89453 279.761 3.89453C346.573 3.89453 401.781 7.93386 445.384 16.0125C488.988 24.0912 521.339 36.5604 542.437 53.4202C563.887 69.9287 574.612 91.5303 574.612 118.225C574.612 129.114 571.623 140.529 565.645 152.471C559.668 164.414 549.118 177.234 533.998 190.933C532.591 192.338 528.02 196.377 520.284 203.051C512.548 209.724 502.702 217.979 490.746 227.814C479.142 237.649 466.483 248.186 452.769 259.426C439.055 270.666 425.517 281.905 412.154 293.145C398.792 304.385 386.484 314.571 375.232 323.704C364.331 332.836 355.54 340.212 348.859 345.832C342.178 351.452 338.837 354.262 338.837 354.262H161.083L494.966 118.225L528.723 97.1502C501.295 120.332 475.801 141.056 452.241 159.321C428.681 177.585 404.946 193.04 381.034 205.685C357.474 217.979 332.332 227.462 305.607 234.136C278.882 240.458 248.641 243.62 214.884 243.62ZM279.761 90.8278C229.828 90.8278 192.73 93.4622 168.467 98.7309C144.555 103.648 132.6 113.132 132.6 127.182C132.6 140.178 144.555 149.661 168.467 155.633C192.73 161.604 229.828 164.589 279.761 164.589C329.694 164.589 369.254 161.604 398.44 155.633C427.978 149.661 442.747 140.178 442.747 127.182C442.747 117.698 436.066 110.322 422.703 105.053C409.341 99.7846 390.528 96.0965 366.265 93.989C342.002 91.8816 313.167 90.8278 279.761 90.8278Z" fill="#222222"/>
</svg>
