<svg width="680" height="147" viewBox="0 0 680 147" fill="none" xmlns="http://www.w3.org/2000/svg">
<path d="M379.345 4.92754C398.737 4.92754 414.754 6.7959 427.396 10.5326C440.037 14.2693 449.949 19.3714 457.131 25.8388C464.314 32.3062 469.341 39.7077 472.214 48.0435C475.231 56.2355 476.739 64.8587 476.739 73.9131C476.739 82.9674 475.087 91.6625 471.783 99.9982C468.479 108.19 463.021 115.52 455.407 121.987C447.938 128.455 437.954 133.557 425.456 137.293C413.102 141.03 397.732 142.899 379.345 142.899H224.203V4.92754H379.345ZM278.072 99.7826H377.19C385.234 99.7826 392.058 99.2796 397.66 98.2736C403.262 97.1238 407.716 95.471 411.02 93.3152C414.467 91.1594 416.909 88.5006 418.346 85.3388C419.926 82.0332 420.716 78.2246 420.716 73.9131C420.716 69.6015 419.926 65.8647 418.346 62.7029C416.909 59.3974 414.467 56.6667 411.02 54.5109C407.716 52.3551 403.262 50.7742 397.66 49.7681C392.058 48.6184 385.234 48.0435 377.19 48.0435H278.072V99.7826Z" fill="#F5EFBD"/>
<path d="M570.871 69.2011C545.853 69.2011 525.795 68.2669 510.698 66.3986C495.745 64.3865 484.89 61.0809 478.132 56.4819C471.518 51.8829 468.211 45.7029 468.211 37.942C468.211 30.0374 471.518 23.2826 478.132 17.6775C484.89 12.0725 495.745 7.76087 510.698 4.74276C525.795 1.58092 545.853 0 570.871 0C596.032 0 616.09 1.58092 631.043 4.74276C646.14 7.76087 656.995 12.0725 663.609 17.6775C670.367 23.2826 673.746 30.0374 673.746 37.942C673.746 45.7029 670.367 51.8829 663.609 56.4819C656.995 61.0809 646.14 64.3865 631.043 66.3986C616.09 68.2669 596.032 69.2011 570.871 69.2011ZM570.871 60.5779C584.386 60.5779 594.738 60.0749 601.927 59.0689C609.116 58.0628 614.077 56.6975 616.808 54.9728C619.54 53.2482 620.906 51.308 620.906 49.1522C620.906 46.9964 619.54 45.1999 616.808 43.7627C614.077 42.1818 609.116 41.032 601.927 40.3134C594.738 39.5948 584.386 39.2355 570.871 39.2355C557.499 39.2355 547.362 39.5948 540.461 40.3134C533.703 41.032 529.102 42.1818 526.658 43.7627C524.357 45.1999 523.207 46.9964 523.207 49.1522C523.207 51.308 524.357 53.2482 526.658 54.9728C529.102 56.6975 533.703 58.0628 540.461 59.0689C547.362 60.0749 557.499 60.5779 570.871 60.5779ZM570.871 146.594C544.271 146.594 522.992 144.726 507.032 140.989C491.072 137.252 479.57 132.15 472.524 125.683C465.479 119.216 461.957 111.958 461.957 103.909C461.957 93.9928 465.623 86.4475 472.956 81.2736C480.432 76.0997 492.151 72.5785 508.11 70.7102C524.07 68.8418 544.99 67.9076 570.871 67.9076C596.751 67.9076 617.671 68.8418 633.631 70.7102C649.734 72.5785 661.452 76.0997 668.785 81.2736C676.262 86.4475 680 93.9928 680 103.909C680 111.958 676.406 119.216 669.217 125.683C662.171 132.15 650.669 137.252 634.709 140.989C618.75 144.726 597.47 146.594 570.871 146.594ZM570.871 105.85C585.824 105.85 597.326 105.49 605.378 104.772C613.573 103.909 619.253 102.688 622.416 101.107C625.579 99.3823 627.161 97.2983 627.161 94.8551C627.161 92.4118 625.579 90.3998 622.416 88.8189C619.253 87.2379 613.573 86.0882 605.378 85.3696C597.326 84.5073 585.824 84.0761 570.871 84.0761C556.061 84.0761 544.774 84.5073 537.01 85.3696C529.246 86.0882 523.926 87.2379 521.05 88.8189C518.319 90.3998 516.953 92.4118 516.953 94.8551C516.953 97.2983 518.319 99.3823 521.05 101.107C523.926 102.688 529.246 103.909 537.01 104.772C544.774 105.49 556.061 105.85 570.871 105.85Z" fill="#F5EFBD"/>
<path d="M87.3415 99.0046C68.1235 99.0046 51.989 96.9274 38.938 92.7729C26.0303 88.6185 16.2779 82.8882 9.68071 75.5821C3.2269 68.276 0 59.8955 0 50.4406C0 40.1261 3.80057 31.3158 11.4017 24.0097C19.0029 16.7036 31.1217 11.1166 47.7582 7.24867C64.5381 3.23748 86.5527 1.23188 113.802 1.23188C141.051 1.23188 163.568 2.87933 181.352 6.17424C199.136 9.46915 212.33 14.5548 220.935 21.4311C229.684 28.1641 234.058 36.9744 234.058 47.8619C234.058 52.3029 232.839 56.9587 230.401 61.8295C227.963 66.7002 223.66 71.9291 217.493 77.5161C216.92 78.0891 215.055 79.7366 211.9 82.4584C208.745 85.1803 204.729 88.5469 199.853 92.558C195.12 96.5692 189.957 100.867 184.364 105.451C178.77 110.035 173.249 114.62 167.799 119.204C162.349 123.788 157.329 127.942 152.74 131.667C148.294 135.392 144.709 138.4 141.984 140.692C139.259 142.984 137.896 144.13 137.896 144.13H65.3986L201.574 47.8619L215.342 39.2665C204.155 48.7215 193.758 57.1736 184.149 64.623C174.54 72.0723 164.859 78.3756 155.106 83.5329C145.497 88.5468 135.243 92.4148 124.343 95.1367C113.444 97.7153 101.11 99.0046 87.3415 99.0046ZM113.802 36.6879C93.4368 36.6879 78.3062 37.7623 68.4103 39.9112C58.6579 41.9168 53.7817 45.7847 53.7817 51.515C53.7817 56.8155 58.6579 60.6834 68.4103 63.1188C78.3062 65.5542 93.4368 66.7718 113.802 66.7718C134.167 66.7718 150.302 65.5542 162.206 63.1188C174.253 60.6834 180.276 56.8155 180.276 51.515C180.276 47.6471 177.551 44.6387 172.101 42.4898C166.652 40.341 158.979 38.8368 149.083 37.9772C139.187 37.1177 127.427 36.6879 113.802 36.6879Z" fill="#F5EFBD"/>
</svg>
